<svg version="1.1" id="Layer_1" xmlns="http://www.w3.org/2000/svg" xmlns:xlink="http://www.w3.org/1999/xlink" x="0px" y="0px"
	 width="100%" viewBox="0 0 500 500" enable-background="new 0 0 500 500" xml:space="preserve">
<path fill="#000000" opacity="1.000000" stroke="none" 
	d="
M320.000000,501.000000 
	C213.333359,501.000000 107.166718,501.000000 1.000057,501.000000 
	C1.000038,334.333405 1.000038,167.666794 1.000019,1.000146 
	C167.666565,1.000098 334.333130,1.000098 500.999756,1.000049 
	C500.999847,167.666519 500.999847,334.333038 500.999939,500.999786 
	C440.833344,501.000000 380.666656,501.000000 320.000000,501.000000 
M129.265945,123.355225 
	C129.265945,123.355225 129.418701,123.242851 129.192169,124.105171 
	C129.127838,124.695869 129.063507,125.286560 128.536514,125.877121 
	C128.536514,125.877121 128.079483,125.942047 127.550232,125.473030 
	C125.041847,124.644981 122.533470,123.816933 119.401665,122.637398 
	C115.881966,121.379288 112.362259,120.121178 108.864944,118.871063 
	C108.561111,119.639893 108.340073,119.938423 108.339706,120.237221 
	C108.307220,146.685165 108.350227,173.133453 108.200745,199.580658 
	C108.182121,202.875290 110.180183,203.334534 112.413132,203.991394 
	C129.071106,208.891754 145.727493,213.797577 162.391663,218.676819 
	C175.260880,222.444916 188.140640,226.177002 201.681198,230.227341 
	C219.282761,235.611740 236.884308,240.996140 254.139313,246.660172 
	C254.139313,246.660172 253.854706,247.002640 253.088379,247.026672 
	C240.338699,251.273270 227.589020,255.519867 214.853867,259.854279 
	C214.853867,259.854279 214.791641,259.790619 214.010406,259.794617 
	C210.874268,260.798065 207.738144,261.801514 204.278580,262.791016 
	C204.278580,262.791016 204.033676,263.002716 203.399368,262.955383 
	C202.857895,263.229187 202.316437,263.503021 201.392593,263.775787 
	C201.392593,263.775787 201.081055,263.997467 200.287094,263.967682 
	C196.461731,265.245911 192.636383,266.524139 188.912537,267.959381 
	C188.912537,267.959381 188.844604,267.785187 188.062393,267.788300 
	C179.018921,270.845703 169.975464,273.903137 160.978989,277.000092 
	C160.978989,277.000092 160.989151,276.939545 160.385223,276.918457 
	C159.869507,277.182556 159.353806,277.446625 158.772964,277.700592 
	C158.772964,277.700592 158.742447,277.759003 157.963852,277.787140 
	C154.300705,278.928558 150.637573,280.069977 146.442032,281.238342 
	C145.976807,281.487579 145.511566,281.736847 144.251648,281.961609 
	C133.660980,285.300018 123.103966,288.751892 112.459526,291.909027 
	C109.185249,292.880157 108.119751,294.428467 108.142395,297.876465 
	C108.302887,322.317993 108.226860,346.761047 108.245392,371.203613 
	C108.246323,372.435913 108.424355,373.668060 108.568573,375.527466 
	C115.424088,372.828522 121.711578,370.353180 128.510468,367.954437 
	C128.682816,367.951660 128.855148,367.948853 129.110672,368.858459 
	C129.110672,372.080811 129.110672,375.303162 129.110672,379.057190 
	C136.262161,376.338501 142.596924,373.930298 149.249054,372.445496 
	C149.249054,375.683868 149.249054,378.922211 149.249054,383.375061 
	C151.530777,381.920563 152.762085,381.135681 154.587265,380.104980 
	C159.389267,378.425995 164.191284,376.747009 169.685638,375.072906 
	C170.894272,374.470947 172.102890,373.868988 173.140549,373.211853 
	C173.140549,373.211853 173.099594,373.386749 173.899170,373.272003 
	C177.622772,371.856842 181.346390,370.441711 185.008148,368.998627 
	C185.008148,368.998627 184.986191,369.062836 185.673386,369.029877 
	C186.889618,368.452728 188.105850,367.875580 189.156769,367.238403 
	C189.156769,367.238403 189.112549,367.408600 189.911255,367.297607 
	C193.440491,365.912018 196.969711,364.526459 200.761551,363.194733 
	C200.761551,363.194733 200.905151,362.968384 201.662979,362.962189 
	C204.129608,361.980682 206.596237,360.999207 209.015442,359.983826 
	C209.015442,359.983826 208.997253,360.039215 209.707809,360.075928 
	C211.185165,359.412323 212.662521,358.748718 214.064804,358.054993 
	C214.064804,358.054993 214.038910,358.131592 214.683228,358.131927 
	C215.423065,357.733795 216.162888,357.335632 216.947525,356.989624 
	C216.947525,356.989624 216.959396,356.921906 217.563873,356.940491 
	C218.068207,356.635651 218.572525,356.330811 219.018539,355.997040 
	C219.018539,355.997040 219.002792,356.060211 219.723083,356.049011 
	C221.238953,355.412750 222.754822,354.776459 224.601654,354.208252 
	C224.601654,354.208252 224.835587,353.964417 225.572403,353.988556 
	C227.074646,353.336151 228.576889,352.683746 230.018387,352.003296 
	C230.018387,352.003296 230.000916,352.067902 230.754288,352.036682 
	C233.827225,350.678192 236.900177,349.319733 239.998169,348.000000 
	C239.998169,348.000000 239.967865,347.963043 240.702271,347.962677 
	C242.484543,347.311096 244.266830,346.659546 246.000839,345.978363 
	C246.000839,345.978363 245.983673,346.032318 246.607895,346.041626 
	C247.105682,345.711243 247.603470,345.380859 248.021744,345.017120 
	C248.021744,345.017120 247.989700,345.097137 248.740723,345.073151 
	C251.140961,344.030884 253.541214,342.988647 255.984070,342.004181 
	C255.984070,342.004181 255.954117,341.942200 256.708801,341.962250 
	C259.172333,340.993256 261.635895,340.024292 264.023224,339.019958 
	C264.023224,339.019958 263.989319,339.096832 264.733063,339.093445 
	C266.050537,338.451263 267.368011,337.809082 268.836304,337.227936 
	C268.836304,337.227936 268.914551,337.085297 269.701874,337.048340 
	C273.151703,335.702393 276.601532,334.356476 279.998962,332.982391 
	C279.998962,332.982391 279.983063,333.039703 280.668365,333.020386 
	C281.889099,332.461578 283.109833,331.902771 284.192627,331.297455 
	C284.192627,331.297455 284.166046,331.440582 284.953217,331.309692 
	C292.962952,328.194672 300.972687,325.079620 308.990784,321.996948 
	C308.990784,321.996948 308.968872,321.968231 309.739288,321.979950 
	C315.806335,319.634949 321.873413,317.289978 327.973022,315.004822 
	C327.973022,315.004822 327.960663,314.939545 328.565582,314.953888 
	C329.062592,314.639374 329.559601,314.324890 330.006897,313.982788 
	C330.006897,313.982788 329.995728,314.038513 330.698914,314.028931 
	C332.150055,313.356049 333.601196,312.683136 335.005768,311.983154 
	C335.005768,311.983154 334.996887,312.036285 335.763275,311.966492 
	C339.188629,310.644745 342.613953,309.322998 345.999603,307.974121 
	C345.999603,307.974121 345.982727,308.019104 346.604980,308.044647 
	C347.097595,307.707153 347.590210,307.369659 348.012634,307.007202 
	C348.012634,307.007202 347.988281,307.077667 348.742676,307.049774 
	C351.197174,306.064728 353.651672,305.079681 356.047211,304.001160 
	C356.047211,304.001160 356.078156,304.106964 356.845215,304.145233 
	C360.776733,302.461365 364.708282,300.777466 368.753784,299.162109 
	C368.753784,299.162109 368.832458,299.054901 369.637024,299.030945 
	C373.103577,297.688354 376.570099,296.345764 379.997101,294.978973 
	C379.997101,294.978973 379.985291,295.023834 380.721558,295.002747 
	C382.034515,294.379456 383.347473,293.756134 384.778625,293.177368 
	C384.778625,293.177368 384.837219,293.065430 385.490387,293.042694 
	C386.027527,292.712860 386.564667,292.382996 387.039886,292.022980 
	C387.039886,292.022980 387.025940,292.090363 387.812866,292.063690 
	C389.862244,291.411804 391.878571,290.612671 393.969025,290.143890 
	C396.821136,289.504333 397.340393,287.795929 397.327148,285.094421 
	C397.219666,263.185303 397.316742,241.275009 397.155121,219.366516 
	C397.144501,217.927902 395.517578,216.501190 394.097107,214.686127 
	C392.104736,213.969040 390.112396,213.251953 388.175598,212.710236 
	C388.175598,212.710236 388.344055,212.636368 387.932495,212.174377 
	C387.337830,212.051468 386.743164,211.928543 386.035706,211.973770 
	C386.035706,211.973770 386.170776,211.822861 385.685730,211.295502 
	C383.801117,210.839355 381.916473,210.383194 380.029358,209.994415 
	C380.029358,209.994415 380.080780,209.950806 379.608978,209.420029 
	C366.838867,204.730881 354.077393,200.018173 341.296722,195.357986 
	C320.562866,187.797821 299.822388,180.255676 279.073792,172.736038 
	C253.951813,163.631454 228.826645,154.535538 203.687271,145.479141 
	C186.367218,139.239624 169.020706,133.073608 151.379318,126.511856 
	C150.867676,126.598213 150.356018,126.684570 149.750320,126.829979 
	C149.750320,126.829979 149.794525,126.931862 149.495377,127.396988 
	C149.370651,128.114990 149.245941,128.832993 148.235016,129.384705 
	C142.274139,127.187042 136.313263,124.989380 130.285522,122.583656 
	C130.285522,122.583656 130.555847,122.503853 130.555847,122.503853 
	C130.555847,122.503853 130.615814,122.776840 129.891586,123.003761 
	C129.688461,123.154549 129.485336,123.305336 129.265945,123.355225 
z"/>
<path fill="#7B30E7" opacity="1.000000" stroke="none" 
	d="
M130.352386,122.791710 
	C136.313263,124.989380 142.274139,127.187042 148.851151,129.656158 
	C170.336761,137.522369 191.206253,145.117142 212.139404,152.788193 
	C212.203094,152.864456 212.398300,152.827271 212.639374,153.052277 
	C221.001892,156.169907 229.139267,159.018707 237.241760,161.963547 
	C259.701996,170.126724 282.134918,178.365234 304.603638,186.504898 
	C319.727509,191.983765 334.893890,197.345322 350.102020,202.831512 
	C350.162811,202.903656 350.346558,202.860947 350.605713,203.070068 
	C358.037170,205.912460 365.265808,208.406845 372.341766,211.277481 
	C374.091156,211.987183 375.344849,213.918716 376.758240,215.734802 
	C376.721344,238.017883 376.752625,259.854736 376.627930,282.022949 
	C374.622345,283.802002 372.987030,285.806061 370.890778,286.613373 
	C342.896149,297.394958 314.842682,308.024048 286.791687,318.658966 
	C271.921234,324.296753 256.997498,329.794983 242.155899,335.507233 
	C234.141098,338.591949 226.248611,341.994507 217.999939,345.320923 
	C217.526184,345.499664 217.353455,345.611176 216.819855,345.657043 
	C208.244034,348.616333 199.988129,351.535339 191.823151,354.689758 
	C177.496643,360.224548 163.225830,365.903534 148.931671,371.522095 
	C142.596924,373.930298 136.262161,376.338501 129.110672,379.057190 
	C129.110672,375.303162 129.110672,372.080811 129.154694,368.010010 
	C129.259964,346.511719 129.663666,325.853790 129.174072,305.217041 
	C129.026932,299.015167 131.449982,296.714722 136.620483,295.173798 
	C147.933533,291.802368 159.200943,288.270813 170.437607,284.651337 
	C202.860687,274.207336 235.261917,263.695435 267.661926,253.179993 
	C269.937775,252.441376 272.133545,251.456070 274.366547,250.585464 
	C272.163239,248.632431 270.070190,247.787720 267.915314,247.152832 
	C252.463684,242.600235 237.000031,238.088425 221.539093,233.567505 
	C211.682159,230.685272 201.823318,227.809616 191.764252,224.819763 
	C191.260010,224.585327 190.961609,224.595901 190.441711,224.489365 
	C189.192596,223.906647 188.169724,223.574860 186.997223,223.142670 
	C186.847580,223.042252 186.488678,223.075439 186.336761,222.947937 
	C185.637680,222.840485 185.090485,222.860519 184.422394,222.755432 
	C184.055725,222.517273 183.842499,222.561401 183.394592,222.508606 
	C177.811890,220.597626 172.496414,218.940765 167.012054,217.171707 
	C166.843170,217.059509 166.437851,217.071594 166.155197,216.921158 
	C161.617523,215.583298 157.362518,214.395889 152.981934,213.116409 
	C152.856354,213.024353 152.548203,213.069229 152.267151,212.912949 
	C147.667511,211.588120 143.348923,210.419586 138.920197,209.162491 
	C138.810059,209.073944 138.535431,209.140579 138.270905,208.974152 
	C136.371292,208.310944 134.736191,207.814163 132.949371,207.211304 
	C132.797668,207.105240 132.428131,207.127930 132.120117,206.921295 
	C131.002487,204.727325 129.511932,202.747421 129.490143,200.751480 
	C129.303406,183.634674 129.420151,166.514862 129.364532,149.396210 
	C129.340286,141.933197 129.125427,134.470779 128.998871,127.004349 
	C129.000610,127.000610 128.996170,127.001450 129.036163,126.720505 
	C129.050507,126.252136 129.024841,126.064697 128.999176,125.877258 
	C129.063507,125.286560 129.127838,124.695869 129.347809,123.735847 
	C129.503448,123.366524 129.282211,123.456116 129.282211,123.456116 
	C129.485336,123.305336 129.688461,123.154549 130.190948,122.940636 
	C130.490295,122.877510 130.352386,122.791710 130.352386,122.791710 
z"/>
<path fill="#CBFB06" opacity="1.000000" stroke="none" 
	d="
M217.180725,345.722717 
	C217.353455,345.611176 217.526184,345.499664 218.125305,345.448303 
	C218.551666,345.508453 218.909012,345.518127 219.072525,345.595581 
	C219.566589,345.551178 219.897156,345.429291 220.553940,345.260162 
	C221.882568,344.777924 222.884964,344.342987 224.133469,343.854370 
	C224.663544,343.624969 224.947495,343.449280 225.580231,343.239868 
	C227.252625,342.781342 228.576263,342.356567 230.143921,341.878204 
	C230.709244,341.714325 230.989563,341.538666 231.585709,341.224030 
	C234.594711,340.076141 237.246902,339.001831 240.143768,337.872864 
	C240.669510,337.641327 240.950592,337.464478 241.514069,337.254150 
	C242.164093,337.128387 242.531693,337.036102 243.146255,336.879761 
	C243.665619,336.615204 243.938034,336.414734 244.490463,336.160767 
	C245.140305,336.019745 245.510147,335.932190 246.123871,335.797760 
	C246.687927,335.645660 246.972610,335.479553 247.501511,335.213074 
	C248.145096,335.076874 248.508972,334.980194 249.119324,334.811920 
	C249.629028,334.524292 249.892258,334.308197 250.485718,334.005219 
	C252.502533,333.234436 254.189117,332.550537 256.121979,331.820007 
	C256.655365,331.606018 256.942474,331.438629 257.507202,331.253052 
	C258.150024,331.170319 258.515228,331.105743 259.094360,331.179749 
	C259.870361,330.877472 260.432434,330.436615 260.997253,329.997864 
	C261.000000,330.000000 260.998352,329.994812 261.292999,329.968262 
	C262.125763,329.705994 262.663910,329.470245 263.520966,329.160339 
	C264.852722,328.685516 265.865570,328.284851 267.127045,327.831451 
	C267.661377,327.599609 267.947052,327.420471 268.578613,327.155731 
	C271.575653,326.007416 274.226807,324.944763 277.122833,323.837341 
	C277.690338,323.691376 277.975891,323.526215 278.572266,323.262756 
	C280.240082,322.784760 281.560089,322.341034 283.129700,321.844238 
	C283.664062,321.608307 283.948792,321.425446 284.575317,321.148285 
	C287.570435,319.987976 290.223724,318.921997 293.121979,317.814087 
	C293.689606,317.672821 293.975586,317.509338 294.572662,317.247589 
	C296.237305,316.761780 297.554169,316.310150 299.120514,315.806885 
	C299.655273,315.574463 299.940552,315.393646 300.516632,315.138062 
	C301.524353,314.708527 302.241302,314.353760 303.189575,313.928192 
	C303.724030,313.733307 303.992035,313.556152 304.567383,313.252594 
	C306.231445,312.729675 307.553162,312.280121 309.119354,311.785095 
	C309.683899,311.633636 309.970306,311.469116 310.508545,311.223572 
	C311.167114,311.121552 311.540222,311.041992 312.156555,310.885620 
	C312.660797,310.593384 312.921783,310.377930 313.371246,310.124115 
	C313.559753,310.085785 313.930817,309.983887 314.318604,309.993134 
	C316.138580,309.324585 317.570770,308.646790 319.314148,307.907104 
	C320.044067,307.785858 320.462799,307.726471 321.112762,307.630066 
	C321.646179,307.482452 321.898834,307.302368 322.400513,306.871887 
	C325.112915,305.793274 327.526764,304.895508 330.179779,303.933411 
	C330.731018,303.744324 331.002350,303.559662 331.582184,303.230011 
	C334.590729,302.083832 337.250031,301.022766 340.153229,299.905212 
	C340.675354,299.668457 340.953583,299.488251 341.573547,299.235077 
	C343.241791,298.740814 344.568359,298.319489 346.137756,297.851471 
	C346.701080,297.703461 346.983337,297.537170 347.548523,297.235413 
	C348.876892,296.743927 349.884033,296.322968 351.135559,295.856445 
	C351.702271,295.709106 351.985138,295.540894 352.549316,295.239380 
	C353.874176,294.749969 354.878174,294.327454 356.128510,293.847595 
	C356.660065,293.613403 356.945282,293.436584 357.513702,293.226929 
	C358.166229,293.104950 358.535583,293.015747 359.150757,292.869446 
	C359.663391,292.610565 359.930206,292.408813 360.478973,292.156982 
	C361.133728,292.024567 361.506531,291.942230 362.125458,291.811005 
	C362.657257,291.591187 362.942932,291.420258 363.548676,291.181000 
	C364.877441,290.704529 365.886108,290.296387 367.232361,289.901428 
	C368.340942,289.549652 369.111938,289.184723 370.061096,288.682556 
	C370.486633,288.375824 370.738373,288.212952 371.218262,287.981506 
	C371.734772,287.778870 371.992950,287.601257 372.553284,287.339172 
	C373.552185,287.166138 374.214417,287.027405 375.112030,286.816101 
	C375.644836,286.585297 375.880402,286.361908 376.239227,285.906860 
	C376.669983,285.516724 376.906006,285.283356 377.352295,284.689209 
	C377.716614,283.195007 377.985718,282.051941 377.987000,280.908569 
	C378.011017,259.663422 378.016327,238.418198 377.972748,217.173096 
	C377.969727,215.713242 377.550659,214.254227 377.249939,212.504730 
	C377.030548,211.843262 376.886230,211.471893 377.053375,210.927673 
	C378.270142,210.486801 379.175446,210.218796 380.080780,209.950806 
	C380.080780,209.950806 380.029358,209.994415 380.148499,210.318024 
	C382.235352,211.035355 384.203064,211.429108 386.170776,211.822861 
	C386.170776,211.822861 386.035706,211.973770 386.277405,212.149231 
	C387.127441,212.428589 387.735748,212.532471 388.344055,212.636368 
	C388.344055,212.636368 388.175598,212.710236 388.350586,212.928406 
	C390.343903,213.872757 392.162231,214.598938 394.215118,215.611420 
	C394.968536,218.086060 395.922150,220.271332 395.937561,222.463211 
	C396.062500,240.225098 395.643097,257.999451 396.183502,275.745819 
	C396.421326,283.555450 395.713043,289.774506 387.025940,292.090363 
	C387.025940,292.090363 387.039886,292.022980 386.754730,292.074402 
	C385.925476,292.439056 385.381348,292.752258 384.837219,293.065430 
	C384.837219,293.065430 384.778625,293.177368 384.324768,293.116333 
	C382.575714,293.711487 381.280518,294.367676 379.985291,295.023865 
	C379.985291,295.023834 379.997101,294.978973 379.616699,294.985779 
	C375.768341,296.346710 372.300385,297.700806 368.832458,299.054901 
	C368.832458,299.054901 368.753784,299.162109 368.273315,299.139343 
	C363.887970,300.780029 359.983063,302.443512 356.078156,304.106964 
	C356.078156,304.106964 356.047211,304.001160 355.686157,304.025574 
	C352.879517,305.059235 350.433899,306.068481 347.988281,307.077698 
	C347.988281,307.077667 348.012634,307.007202 347.743744,307.040222 
	C346.977478,307.388519 346.480103,307.703796 345.982727,308.019104 
	C345.982727,308.019104 345.999603,307.974121 345.615906,307.987305 
	C341.820435,309.345764 338.408661,310.691010 334.996887,312.036255 
	C334.996887,312.036285 335.005768,311.983154 334.638306,311.992310 
	C332.845795,312.680481 331.420746,313.359497 329.995728,314.038513 
	C329.995728,314.038513 330.006897,313.982788 329.737061,314.030518 
	C328.965057,314.365326 328.462860,314.652435 327.960632,314.939514 
	C327.960663,314.939545 327.973022,315.004822 327.547668,314.972229 
	C321.071136,317.282471 315.020020,319.625336 308.968872,321.968231 
	C308.968872,321.968231 308.990784,321.996948 308.587891,321.987183 
	C303.223114,323.689850 298.213684,325.278564 293.316376,327.159241 
	C290.180695,328.363464 287.210449,329.998627 284.166046,331.440582 
	C284.166046,331.440582 284.192627,331.297455 283.909302,331.258362 
	C282.411652,331.826080 281.197357,332.432892 279.983063,333.039703 
	C279.983063,333.039703 279.998962,332.982391 279.628662,332.994324 
	C275.810394,334.365936 272.362457,335.725616 268.914551,337.085266 
	C268.914551,337.085297 268.836304,337.227936 268.374756,337.187256 
	C266.605255,337.796661 265.297272,338.446747 263.989319,339.096832 
	C263.989319,339.096832 264.023224,339.019958 263.661743,339.024048 
	C260.851532,339.999481 258.402832,340.970825 255.954117,341.942200 
	C255.954117,341.942200 255.984070,342.004181 255.580353,341.983521 
	C252.781006,343.007629 250.385345,344.052368 247.989700,345.097137 
	C247.989700,345.097137 248.021744,345.017120 247.754333,345.047485 
	C246.985840,345.396027 246.484756,345.714172 245.983673,346.032318 
	C245.983673,346.032318 246.000839,345.978363 245.636383,345.984283 
	C243.503906,346.647827 241.735886,347.305450 239.967865,347.963043 
	C239.967865,347.963043 239.998169,348.000000 239.593750,347.983856 
	C236.126526,349.334442 233.063721,350.701172 230.000916,352.067902 
	C230.000916,352.067902 230.018387,352.003296 229.687622,352.017975 
	C227.849777,352.676575 226.342682,353.320496 224.835587,353.964417 
	C224.835587,353.964417 224.601654,354.208252 224.053436,354.146301 
	C222.004410,354.742950 220.503601,355.401581 219.002792,356.060181 
	C219.002792,356.060211 219.018539,355.997040 218.753174,356.045410 
	C217.978333,356.369812 217.468857,356.645844 216.959381,356.921875 
	C216.959396,356.921906 216.947525,356.989624 216.596039,356.975616 
	C215.509338,357.351593 214.774124,357.741608 214.038910,358.131592 
	C214.038910,358.131592 214.064804,358.054993 213.704788,358.049622 
	C211.895599,358.709229 210.446426,359.374207 208.997253,360.039185 
	C208.997253,360.039215 209.015442,359.983826 208.646698,359.997009 
	C205.820358,360.996277 203.362747,361.982330 200.905151,362.968384 
	C200.905151,362.968384 200.761551,363.194733 200.213898,363.132202 
	C196.148346,364.515991 192.630447,365.962280 189.112549,367.408600 
	C189.112549,367.408600 189.156769,367.238403 188.885071,367.220612 
	C187.404297,367.822815 186.195251,368.442841 184.986206,369.062866 
	C184.986191,369.062836 185.008148,368.998627 184.641510,369.005249 
	C180.549789,370.470154 176.824692,371.928467 173.099594,373.386749 
	C173.099594,373.386749 173.140549,373.211853 172.871643,373.200714 
	C171.399582,373.815704 170.196442,374.441864 168.993286,375.067993 
	C164.191284,376.747009 159.389267,378.425995 153.873138,380.182709 
	C149.792374,377.587524 149.603729,373.458435 153.009598,371.638489 
	C155.918747,370.083954 159.085220,368.993286 162.179611,367.806213 
	C174.399460,363.118530 186.635757,358.473724 199.113235,353.763794 
	C199.645676,353.538727 199.930847,353.362793 200.545441,353.102661 
	C202.551941,352.328888 204.228989,351.639282 206.154205,350.880920 
	C206.671143,350.601624 206.939911,350.391052 207.557953,350.111511 
	C209.907730,349.337311 211.908249,348.632111 214.146774,347.877777 
	C214.699188,347.728058 214.976501,347.564575 215.492676,347.288086 
	C216.239334,346.732910 216.710037,346.227814 217.180725,345.722717 
z"/>
<path fill="#CBFC05" opacity="1.000000" stroke="none" 
	d="
M204.033676,263.002716 
	C204.033676,263.002716 204.278580,262.791016 204.862259,262.851929 
	C208.561172,261.872101 211.676407,260.831360 214.791641,259.790619 
	C214.791641,259.790619 214.853867,259.854279 215.247314,259.866455 
	C227.939804,256.070923 240.242615,252.275238 252.525192,248.415146 
	C253.063187,248.246063 253.415756,247.486923 253.854706,247.002640 
	C253.854706,247.002640 254.139313,246.660172 254.633972,246.449478 
	C259.711853,247.206467 264.295074,248.174164 268.878265,249.141846 
	C268.790161,249.715332 268.702026,250.288818 268.613892,250.862305 
	C228.024048,264.009430 187.434204,277.156555 146.689026,290.319397 
	C146.330795,290.397186 146.150116,290.498718 145.605164,290.696106 
	C141.765152,291.912170 138.311569,293.071899 134.706818,294.260742 
	C134.359909,294.360657 134.189743,294.470978 133.671051,294.726685 
	C129.163254,295.696014 127.972527,298.235413 127.999474,302.385010 
	C128.137589,323.649567 127.991112,344.915924 127.607811,366.237305 
	C121.902138,368.636017 116.532745,370.979095 111.138306,373.333099 
	C110.433876,371.778046 110.060577,371.337708 110.059364,370.896332 
	C109.991692,346.315735 109.931427,321.734985 109.998116,297.154602 
	C110.000916,296.123962 110.994881,294.499023 111.901276,294.164368 
	C117.949326,291.931213 124.139565,290.085449 130.203430,287.892151 
	C135.208359,286.081879 140.102890,283.966339 145.046341,281.986084 
	C145.511566,281.736847 145.976807,281.487579 147.006073,281.394531 
	C151.294220,280.286804 155.018326,279.022888 158.742447,277.758972 
	C158.742447,277.759003 158.772964,277.700592 159.104004,277.738770 
	C159.953094,277.497803 160.471115,277.218689 160.989151,276.939545 
	C160.989151,276.939545 160.978989,277.000092 161.361343,277.013245 
	C167.413605,275.411591 173.137436,273.960846 178.733582,272.121613 
	C182.204117,270.981018 185.480881,269.250763 188.844604,267.785187 
	C188.844604,267.785187 188.912537,267.959381 189.290817,267.931824 
	C193.473083,266.601959 197.277069,265.299713 201.081055,263.997467 
	C201.081055,263.997467 201.392593,263.775787 201.891663,263.801636 
	C202.938370,263.552582 203.486023,263.277649 204.033676,263.002716 
z"/>
<path fill="#C7E13E" opacity="1.000000" stroke="none" 
	d="
M379.844879,209.685410 
	C379.175446,210.218796 378.270142,210.486801 376.693115,210.870712 
	C374.928101,210.646332 373.833252,210.311005 372.741791,209.964981 
	C365.276306,207.598236 357.811554,205.229218 350.346558,202.860947 
	C350.346558,202.860947 350.162811,202.903656 349.969971,202.522766 
	C339.066345,198.133438 328.379211,194.060272 317.640259,190.128708 
	C285.938477,178.522552 254.226486,166.944000 222.486313,155.443420 
	C219.234573,154.265198 215.766159,153.684982 212.398300,152.827271 
	C212.398300,152.827271 212.203094,152.864456 211.998657,152.484451 
	C196.472031,146.389114 181.089096,140.829224 165.859680,134.876572 
	C160.316406,132.709900 155.138901,129.607391 149.794525,126.931862 
	C149.794525,126.931862 149.750320,126.829979 150.103638,126.862785 
	C150.866638,126.888641 151.276321,126.881691 151.686020,126.874741 
	C169.020706,133.073608 186.367218,139.239624 203.687271,145.479141 
	C228.826645,154.535538 253.951813,163.631454 279.073792,172.736038 
	C299.822388,180.255676 320.562866,187.797821 341.296722,195.357986 
	C354.077393,200.018173 366.838867,204.730881 379.844879,209.685410 
z"/>
<path fill="#C2CE5A" opacity="1.000000" stroke="none" 
	d="
M134.857986,294.231598 
	C138.311569,293.071899 141.765152,291.912170 145.762177,290.685577 
	C146.517303,290.568604 146.696899,290.463593 146.844376,290.303680 
	C187.434204,277.156555 228.024048,264.009430 268.613892,250.862305 
	C268.702026,250.288818 268.790161,249.715332 268.878265,249.141846 
	C264.295074,248.174164 259.711853,247.206467 254.807251,246.309662 
	C236.884308,240.996140 219.282761,235.611740 201.224258,229.752441 
	C197.833328,227.828690 194.899338,226.379837 191.965332,224.930984 
	C201.823318,227.809616 211.682159,230.685272 221.539093,233.567505 
	C237.000031,238.088425 252.463684,242.600235 267.915314,247.152832 
	C270.070190,247.787720 272.163239,248.632431 274.366547,250.585464 
	C272.133545,251.456070 269.937775,252.441376 267.661926,253.179993 
	C235.261917,263.695435 202.860687,274.207336 170.437607,284.651337 
	C159.200943,288.270813 147.933533,291.802368 136.620483,295.173798 
	C131.449982,296.714722 129.026932,299.015167 129.174072,305.217041 
	C129.663666,325.853790 129.259964,346.511719 129.113098,367.553772 
	C128.855148,367.948853 128.682816,367.951660 128.250320,367.631958 
	C127.974808,366.933563 127.959450,366.557617 127.944092,366.181671 
	C127.991112,344.915924 128.137589,323.649567 127.999474,302.385010 
	C127.972527,298.235413 129.163254,295.696014 133.823395,294.707458 
	C134.553314,294.514923 134.722717,294.398010 134.857986,294.231598 
z"/>
<path fill="#C6D754" opacity="1.000000" stroke="none" 
	d="
M191.764252,224.819763 
	C194.899338,226.379837 197.833328,227.828690 200.891510,229.601318 
	C188.140640,226.177002 175.260880,222.444916 162.391663,218.676819 
	C145.727493,213.797577 129.071106,208.891754 112.413132,203.991394 
	C110.180183,203.334534 108.182121,202.875290 108.200745,199.580658 
	C108.350227,173.133453 108.307220,146.685165 108.339706,120.237221 
	C108.340073,119.938423 108.561111,119.639893 108.864944,118.871063 
	C112.362259,120.121178 115.881966,121.379288 119.700439,122.828659 
	C119.999222,123.019928 119.977829,123.054153 119.568863,123.028358 
	C116.285873,122.489632 113.411858,121.976700 110.559639,121.467659 
	C110.240997,122.292091 109.910370,122.749107 109.909546,123.206711 
	C109.864380,148.352386 109.827202,173.498154 109.888626,198.643661 
	C109.891479,199.812988 110.533035,201.744736 111.331383,202.024323 
	C116.569107,203.858673 121.931885,205.335999 127.998688,207.152969 
	C127.998688,179.833267 127.998688,153.399460 128.247986,126.976761 
	C128.497284,126.987846 128.996170,127.001450 128.996170,127.001450 
	C128.996170,127.001450 129.000610,127.000610 128.978897,127.471970 
	C128.950790,131.439819 128.939117,134.936310 128.938873,138.432800 
	C128.937378,159.578461 128.937592,180.724121 128.939987,201.869781 
	C128.940277,204.388199 128.590973,207.149734 132.428131,207.127930 
	C132.428131,207.127930 132.797668,207.105240 133.145020,207.468750 
	C135.173401,208.268372 136.854416,208.704468 138.535431,209.140564 
	C138.535431,209.140579 138.810059,209.073944 139.141479,209.435669 
	C143.831314,210.888000 148.189758,211.978622 152.548203,213.069244 
	C152.548203,213.069229 152.856354,213.024353 153.174927,213.394806 
	C157.808289,214.867371 162.123062,215.969482 166.437851,217.071594 
	C166.437851,217.071594 166.843170,217.059509 167.187439,217.443542 
	C172.908401,219.472641 178.285110,221.117676 183.661804,222.762711 
	C183.842499,222.561401 184.055725,222.517273 184.750336,222.803711 
	C185.628998,223.009888 186.058838,223.042664 186.488678,223.075439 
	C186.488678,223.075439 186.847580,223.042252 187.183411,223.417435 
	C188.568817,224.108521 189.618393,224.424408 190.667984,224.740311 
	C190.961609,224.595901 191.260010,224.585327 191.764252,224.819763 
z"/>
<path fill="#B9D631" opacity="1.000000" stroke="none" 
	d="
M127.607811,366.237305 
	C127.959450,366.557617 127.974808,366.933563 127.994614,367.593689 
	C121.711578,370.353180 115.424088,372.828522 108.568573,375.527466 
	C108.424355,373.668060 108.246323,372.435913 108.245392,371.203613 
	C108.226860,346.761047 108.302887,322.317993 108.142395,297.876465 
	C108.119751,294.428467 109.185249,292.880157 112.459526,291.909027 
	C123.103966,288.751892 133.660980,285.300018 144.648987,281.973846 
	C140.102890,283.966339 135.208359,286.081879 130.203430,287.892151 
	C124.139565,290.085449 117.949326,291.931213 111.901276,294.164368 
	C110.994881,294.499023 110.000916,296.123962 109.998116,297.154602 
	C109.931427,321.734985 109.991692,346.315735 110.059364,370.896332 
	C110.060577,371.337708 110.433876,371.778046 111.138306,373.333099 
	C116.532745,370.979095 121.902138,368.636017 127.607811,366.237305 
z"/>
<path fill="#B5BD56" opacity="1.000000" stroke="none" 
	d="
M205.906052,350.949677 
	C204.228989,351.639282 202.551941,352.328888 200.294968,353.149323 
	C199.432022,353.457764 199.148987,353.635376 198.865952,353.812988 
	C186.635757,358.473724 174.399460,363.118530 162.179611,367.806213 
	C159.085220,368.993286 155.918747,370.083954 153.009598,371.638489 
	C149.603729,373.458435 149.792374,377.587524 153.576202,380.305603 
	C152.762085,381.135681 151.530777,381.920563 149.249054,383.375061 
	C149.249054,378.922211 149.249054,375.683868 149.090363,371.983826 
	C163.225830,365.903534 177.496643,360.224548 191.823151,354.689758 
	C199.988129,351.535339 208.244034,348.616333 216.819870,345.657043 
	C216.710037,346.227814 216.239334,346.732910 215.250046,347.326355 
	C214.408890,347.507843 214.134659,347.678589 213.908768,347.926941 
	C211.908249,348.632111 209.907730,349.337311 207.308655,350.181335 
	C206.442078,350.530029 206.174072,350.739868 205.906052,350.949677 
z"/>
<path fill="#CAF12C" opacity="1.000000" stroke="none" 
	d="
M387.419403,292.077026 
	C395.713043,289.774506 396.421326,283.555450 396.183502,275.745819 
	C395.643097,257.999451 396.062500,240.225098 395.937561,222.463211 
	C395.922150,220.271332 394.968536,218.086060 394.378967,215.542389 
	C394.308258,215.187073 394.642487,215.068924 394.642487,215.068924 
	C395.517578,216.501190 397.144501,217.927902 397.155121,219.366516 
	C397.316742,241.275009 397.219666,263.185303 397.327148,285.094421 
	C397.340393,287.795929 396.821136,289.504333 393.969025,290.143890 
	C391.878571,290.612671 389.862244,291.411804 387.419403,292.077026 
z"/>
<path fill="#B5BD56" opacity="1.000000" stroke="none" 
	d="
M149.644958,127.164429 
	C155.138901,129.607391 160.316406,132.709900 165.859680,134.876572 
	C181.089096,140.829224 196.472031,146.389114 211.934967,152.408188 
	C191.206253,145.117142 170.336761,137.522369 149.294250,129.739288 
	C149.245941,128.832993 149.370651,128.114990 149.644958,127.164429 
z"/>
<path fill="#B9D631" opacity="1.000000" stroke="none" 
	d="
M253.471542,247.014648 
	C253.415756,247.486923 253.063187,248.246063 252.525192,248.415146 
	C240.242615,252.275238 227.939804,256.070923 215.240051,259.822540 
	C227.589020,255.519867 240.338699,251.273270 253.471542,247.014648 
z"/>
<path fill="#B9D631" opacity="1.000000" stroke="none" 
	d="
M188.453491,267.786743 
	C185.480881,269.250763 182.204117,270.981018 178.733582,272.121613 
	C173.137436,273.960846 167.413605,275.411591 161.337860,276.993500 
	C169.975464,273.903137 179.018921,270.845703 188.453491,267.786743 
z"/>
<path fill="#CAF12C" opacity="1.000000" stroke="none" 
	d="
M284.559631,331.375122 
	C287.210449,329.998627 290.180695,328.363464 293.316376,327.159241 
	C298.213684,325.278564 303.223114,323.689850 308.583740,321.971008 
	C300.972687,325.079620 292.962952,328.194672 284.559631,331.375122 
z"/>
<path fill="#CAF12C" opacity="1.000000" stroke="none" 
	d="
M309.354065,321.974091 
	C315.020020,319.625336 321.071136,317.282471 327.531372,314.942291 
	C321.873413,317.289978 315.806335,319.634949 309.354065,321.974091 
z"/>
<path fill="#B9D631" opacity="1.000000" stroke="none" 
	d="
M200.684082,263.982574 
	C197.277069,265.299713 193.473083,266.601959 189.240051,267.853271 
	C192.636383,266.524139 196.461731,265.245911 200.684082,263.982574 
z"/>
<path fill="#B9D631" opacity="1.000000" stroke="none" 
	d="
M158.353149,277.773071 
	C155.018326,279.022888 151.294220,280.286804 147.272278,281.381042 
	C150.637573,280.069977 154.300705,278.928558 158.353149,277.773071 
z"/>
<path fill="#CAF12C" opacity="1.000000" stroke="none" 
	d="
M356.461670,304.126099 
	C359.983063,302.443512 363.887970,300.780029 368.216370,299.105042 
	C364.708282,300.777466 360.776733,302.461365 356.461670,304.126099 
z"/>
<path fill="#CAF12C" opacity="1.000000" stroke="none" 
	d="
M369.234741,299.042908 
	C372.300385,297.700806 375.768341,296.346710 379.636475,294.997894 
	C376.570099,296.345764 373.103577,297.688354 369.234741,299.042908 
z"/>
<path fill="#CAF12C" opacity="1.000000" stroke="none" 
	d="
M335.380066,312.001373 
	C338.408661,310.691010 341.820435,309.345764 345.635742,308.000854 
	C342.613953,309.322998 339.188629,310.644745 335.380066,312.001373 
z"/>
<path fill="#CAF12C" opacity="1.000000" stroke="none" 
	d="
M189.511902,367.353088 
	C192.630447,365.962280 196.148346,364.515991 200.082611,363.105286 
	C196.969711,364.526459 193.440491,365.912018 189.511902,367.353088 
z"/>
<path fill="#CAF12C" opacity="1.000000" stroke="none" 
	d="
M173.499390,373.329376 
	C176.824692,371.928467 180.549789,370.470154 184.672455,369.019226 
	C181.346390,370.441711 177.622772,371.856842 173.499390,373.329376 
z"/>
<path fill="#CAF12C" opacity="1.000000" stroke="none" 
	d="
M269.308228,337.066803 
	C272.362457,335.725616 275.810394,334.365936 279.654846,333.008423 
	C276.601532,334.356476 273.151703,335.702393 269.308228,337.066803 
z"/>
<path fill="#B9D631" opacity="1.000000" stroke="none" 
	d="
M214.401031,259.792603 
	C211.676407,260.831360 208.561172,261.872101 205.023972,262.858887 
	C207.738144,261.801514 210.874268,260.798065 214.401031,259.792603 
z"/>
<path fill="#CAF12C" opacity="1.000000" stroke="none" 
	d="
M230.377594,352.052307 
	C233.063721,350.701172 236.126526,349.334442 239.581223,347.964478 
	C236.900177,349.319733 233.827225,350.678192 230.377594,352.052307 
z"/>
<path fill="#CAF12C" opacity="1.000000" stroke="none" 
	d="
M256.331451,341.952209 
	C258.402832,340.970825 260.851532,339.999481 263.699829,339.041718 
	C261.635895,340.024292 259.172333,340.993256 256.331451,341.952209 
z"/>
<path fill="#C6D754" opacity="1.000000" stroke="none" 
	d="
M120.012154,123.004410 
	C122.533470,123.816933 125.041847,124.644981 127.736801,125.759521 
	C127.923363,126.046013 127.773788,126.158676 127.415581,126.099731 
	C124.697525,125.045242 122.337677,124.049698 119.977829,123.054153 
	C119.977829,123.054153 119.999222,123.019928 120.012154,123.004410 
z"/>
<path fill="#CAF12C" opacity="1.000000" stroke="none" 
	d="
M248.365204,345.085144 
	C250.385345,344.052368 252.781006,343.007629 255.559052,341.954651 
	C253.541214,342.988647 251.140961,344.030884 248.365204,345.085144 
z"/>
<path fill="#CAF12C" opacity="1.000000" stroke="none" 
	d="
M201.284058,362.965271 
	C203.362747,361.982330 205.820358,360.996277 208.670410,360.013977 
	C206.596237,360.999207 204.129608,361.980682 201.284058,362.965271 
z"/>
<path fill="#CAF12C" opacity="1.000000" stroke="none" 
	d="
M348.365479,307.063721 
	C350.433899,306.068481 352.879517,305.059235 355.715637,304.072327 
	C353.651672,305.079681 351.197174,306.064728 348.365479,307.063721 
z"/>
<path fill="#C7E13E" opacity="1.000000" stroke="none" 
	d="
M385.928253,211.559174 
	C384.203064,211.429108 382.235352,211.035355 380.149750,210.284332 
	C381.916473,210.383194 383.801117,210.839355 385.928253,211.559174 
z"/>
<path fill="#CAF12C" opacity="1.000000" stroke="none" 
	d="
M240.335068,347.962860 
	C241.735886,347.305450 243.503906,346.647827 245.660522,345.999084 
	C244.266830,346.659546 242.484543,347.311096 240.335068,347.962860 
z"/>
<path fill="#CAF12C" opacity="1.000000" stroke="none" 
	d="
M330.347321,314.033722 
	C331.420746,313.359497 332.845795,312.680481 334.661560,312.005859 
	C333.601196,312.683136 332.150055,313.356049 330.347321,314.033722 
z"/>
<path fill="#CAF12C" opacity="1.000000" stroke="none" 
	d="
M209.352539,360.057556 
	C210.446426,359.374207 211.895599,358.709229 213.742325,358.064667 
	C212.662521,358.748718 211.185165,359.412323 209.352539,360.057556 
z"/>
<path fill="#C7E13E" opacity="1.000000" stroke="none" 
	d="
M394.369812,214.877533 
	C394.642487,215.068924 394.308258,215.187073 394.144409,215.256104 
	C392.162231,214.598938 390.343903,213.872757 388.322815,212.840714 
	C390.112396,213.251953 392.104736,213.969040 394.369812,214.877533 
z"/>
<path fill="#CAF12C" opacity="1.000000" stroke="none" 
	d="
M219.362946,356.054596 
	C220.503601,355.401581 222.004410,354.742950 223.887955,354.112244 
	C222.754822,354.776459 221.238953,355.412750 219.362946,356.054596 
z"/>
<path fill="#CAF12C" opacity="1.000000" stroke="none" 
	d="
M380.353424,295.013306 
	C381.280518,294.367676 382.575714,293.711487 384.265656,293.094055 
	C383.347473,293.756134 382.034515,294.379456 380.353424,295.013306 
z"/>
<path fill="#CAF12C" opacity="1.000000" stroke="none" 
	d="
M225.203995,353.976501 
	C226.342682,353.320496 227.849777,352.676575 229.718002,352.032013 
	C228.576889,352.683746 227.074646,353.336151 225.203995,353.976501 
z"/>
<path fill="#CAF12C" opacity="1.000000" stroke="none" 
	d="
M280.325714,333.030029 
	C281.197357,332.432892 282.411652,331.826080 283.978271,331.281647 
	C283.109833,331.902771 281.889099,332.461578 280.325714,333.030029 
z"/>
<path fill="#CAF12C" opacity="1.000000" stroke="none" 
	d="
M264.361206,339.095154 
	C265.297272,338.446747 266.605255,337.796661 268.299347,337.156738 
	C267.368011,337.809082 266.050537,338.451263 264.361206,339.095154 
z"/>
<path fill="#CAF12C" opacity="1.000000" stroke="none" 
	d="
M169.339462,375.070435 
	C170.196442,374.441864 171.399582,373.815704 172.957123,373.228271 
	C172.102890,373.868988 170.894272,374.470947 169.339462,375.070435 
z"/>
<path fill="#CAF12C" opacity="1.000000" stroke="none" 
	d="
M185.329803,369.046387 
	C186.195251,368.442841 187.404297,367.822815 188.967712,367.250610 
	C188.105850,367.875580 186.889618,368.452728 185.329803,369.046387 
z"/>
<path fill="#CAF12C" opacity="1.000000" stroke="none" 
	d="
M214.361069,358.131775 
	C214.774124,357.741608 215.509338,357.351593 216.573639,356.949524 
	C216.162888,357.335632 215.423065,357.733795 214.361069,358.131775 
z"/>
<path fill="#B5BD56" opacity="1.000000" stroke="none" 
	d="
M151.532669,126.693298 
	C151.276321,126.881691 150.866638,126.888641 150.150665,126.833260 
	C150.356018,126.684570 150.867676,126.598213 151.532669,126.693298 
z"/>
<path fill="#C7E13E" opacity="1.000000" stroke="none" 
	d="
M388.138275,212.405365 
	C387.735748,212.532471 387.127441,212.428589 386.333801,212.065170 
	C386.743164,211.928543 387.337830,212.051468 388.138275,212.405365 
z"/>
<path fill="#CAF12C" opacity="1.000000" stroke="none" 
	d="
M328.263123,314.946716 
	C328.462860,314.652435 328.965057,314.365326 329.761902,314.044312 
	C329.559601,314.324890 329.062592,314.639374 328.263123,314.946716 
z"/>
<path fill="#B9D631" opacity="1.000000" stroke="none" 
	d="
M203.716522,262.979065 
	C203.486023,263.277649 202.938370,263.552582 202.082840,263.802155 
	C202.316437,263.503021 202.857895,263.229187 203.716522,262.979065 
z"/>
<path fill="#CAF12C" opacity="1.000000" stroke="none" 
	d="
M217.261627,356.931183 
	C217.468857,356.645844 217.978333,356.369812 218.782318,356.059875 
	C218.572525,356.330811 218.068207,356.635651 217.261627,356.931183 
z"/>
<path fill="#B9D631" opacity="1.000000" stroke="none" 
	d="
M160.687195,276.929016 
	C160.471115,277.218689 159.953094,277.497803 159.136566,277.743835 
	C159.353806,277.446625 159.869507,277.182556 160.687195,276.929016 
z"/>
<path fill="#CAF12C" opacity="1.000000" stroke="none" 
	d="
M385.163818,293.054077 
	C385.381348,292.752258 385.925476,292.439056 386.785675,292.089478 
	C386.564667,292.382996 386.027527,292.712860 385.163818,293.054077 
z"/>
<path fill="#CAF12C" opacity="1.000000" stroke="none" 
	d="
M246.295776,346.036987 
	C246.484756,345.714172 246.985840,345.396027 247.794083,345.064148 
	C247.603470,345.380859 247.105682,345.711243 246.295776,346.036987 
z"/>
<path fill="#CAF12C" opacity="1.000000" stroke="none" 
	d="
M346.293854,308.031860 
	C346.480103,307.703796 346.977478,307.388519 347.778870,307.052673 
	C347.590210,307.369659 347.097595,307.707153 346.293854,308.031860 
z"/>
<path fill="#C2CE5A" opacity="1.000000" stroke="none" 
	d="
M130.318954,122.687683 
	C130.352386,122.791710 130.490295,122.877510 130.553055,122.827179 
	C130.615814,122.776840 130.555847,122.503853 130.555847,122.503853 
	C130.555847,122.503853 130.285522,122.583656 130.318954,122.687683 
z"/>
<path fill="#C2CE5A" opacity="1.000000" stroke="none" 
	d="
M129.036163,126.720505 
	C128.996170,127.001450 128.497284,126.987846 128.175354,126.779800 
	C127.853439,126.571747 127.773788,126.158676 127.773788,126.158676 
	C127.773788,126.158676 127.923363,126.046013 128.001419,125.994034 
	C128.079483,125.942047 128.536514,125.877121 128.767853,125.877190 
	C129.024841,126.064697 129.050507,126.252136 129.036163,126.720505 
z"/>
<path fill="#C2CE5A" opacity="1.000000" stroke="none" 
	d="
M129.274078,123.405670 
	C129.282211,123.456116 129.503448,123.366524 129.461075,123.304688 
	C129.418701,123.242851 129.265945,123.355225 129.274078,123.405670 
z"/>
<path fill="#B5BD56" opacity="1.000000" stroke="none" 
	d="
M258.880432,331.041138 
	C258.515228,331.105743 258.150024,331.170319 257.257874,331.294556 
	C256.445831,331.525055 256.160767,331.695862 255.875702,331.866638 
	C254.189117,332.550537 252.502533,333.234436 250.239624,334.081665 
	C249.399796,334.457825 249.136322,334.670654 248.872864,334.883484 
	C248.508972,334.980194 248.145096,335.076874 247.254196,335.255157 
	C246.397324,335.426880 246.114929,335.596161 245.879990,335.844635 
	C245.510147,335.932190 245.140305,336.019745 244.240860,336.222168 
	C243.440598,336.539246 243.169952,336.741516 242.899307,336.943817 
	C242.531693,337.036102 242.164093,337.128387 241.265945,337.302307 
	C240.456635,337.565155 240.177872,337.746307 239.899109,337.927490 
	C237.246902,339.001831 234.594711,340.076141 231.338074,341.270081 
	C230.455719,341.570435 230.177811,341.751129 229.899902,341.931824 
	C228.576263,342.356567 227.252625,342.781342 225.329590,343.284729 
	C224.449265,343.544922 224.168320,343.726501 223.887360,343.908051 
	C222.884964,344.342987 221.882568,344.777924 220.220230,345.290100 
	C219.343201,345.417542 219.126099,345.467834 218.909012,345.518127 
	C218.909012,345.518127 218.551666,345.508453 218.426300,345.381104 
	C226.248611,341.994507 234.141098,338.591949 242.155899,335.507233 
	C256.997498,329.794983 271.921234,324.296753 286.791687,318.658966 
	C314.842682,308.024048 342.896149,297.394958 370.890778,286.613373 
	C372.987030,285.806061 374.622345,283.802002 376.736206,282.432129 
	C377.044434,283.353394 377.088379,284.196808 377.132355,285.040253 
	C376.906006,285.283356 376.669983,285.516724 376.014648,285.998596 
	C375.312012,286.409576 375.069214,286.620209 374.876617,286.888672 
	C374.214417,287.027405 373.552185,287.166138 372.317505,287.389343 
	C371.437653,287.594482 371.187439,287.788788 370.994415,288.056763 
	C370.738373,288.212952 370.486633,288.375824 369.742981,288.730591 
	C368.462738,289.239960 367.678772,289.564087 366.894806,289.888214 
	C365.886108,290.296387 364.877441,290.704529 363.299774,291.226624 
	C362.446991,291.513672 362.163147,291.686768 361.879333,291.859863 
	C361.506531,291.942230 361.133728,292.024567 360.233398,292.218445 
	C359.438904,292.528870 359.171906,292.727722 358.904907,292.926544 
	C358.535583,293.015747 358.166229,293.104950 357.262817,293.275757 
	C356.446564,293.539886 356.164398,293.722412 355.882202,293.904938 
	C354.878174,294.327454 353.874176,294.749969 352.302002,295.279022 
	C351.404938,295.479340 351.124054,295.651459 350.891174,295.901978 
	C349.884033,296.322968 348.876892,296.743927 347.303162,297.277710 
	C346.410431,297.484222 346.129883,297.653442 345.894897,297.898163 
	C344.568359,298.319489 343.241791,298.740814 341.326019,299.283997 
	C340.460968,299.591156 340.185150,299.776428 339.909332,299.961731 
	C337.250031,301.022766 334.590729,302.083832 331.338196,303.284790 
	C330.425354,303.543396 330.157227,303.734436 329.940613,303.997742 
	C327.526764,304.895508 325.112915,305.793274 322.173096,306.924255 
	C321.353333,307.269409 321.098145,307.439301 320.881500,307.667084 
	C320.462799,307.726471 320.044067,307.785858 318.969971,307.956482 
	C316.853333,308.706482 315.392090,309.345184 313.930817,309.983887 
	C313.930817,309.983887 313.559753,310.085785 313.126556,310.201172 
	C312.433350,310.531891 312.173340,310.747162 311.913300,310.962433 
	C311.540222,311.041992 311.167114,311.121552 310.260803,311.265076 
	C309.396851,311.417267 309.112610,311.584442 308.874847,311.830597 
	C307.553162,312.280121 306.231445,312.729675 304.325989,313.302673 
	C303.424683,313.540222 303.163361,313.731140 302.958221,313.998962 
	C302.241302,314.353760 301.524353,314.708527 300.264771,315.187378 
	C299.438416,315.493805 299.154724,315.676147 298.871063,315.858490 
	C297.554169,316.310150 296.237305,316.761780 294.324799,317.284760 
	C293.397278,317.441132 293.113220,317.607788 292.877045,317.856018 
	C290.223724,318.921997 287.570435,319.987976 284.323059,321.198303 
	C283.445984,321.527496 283.163025,321.712402 282.880066,321.897308 
	C281.560089,322.341034 280.240082,322.784760 278.324219,323.301483 
	C277.444885,323.543701 277.161407,323.712891 276.877930,323.882080 
	C274.226807,324.944763 271.575653,326.007416 268.326294,327.203125 
	C267.444885,327.518860 267.161652,327.701538 266.878387,327.884186 
	C265.865570,328.284851 264.852722,328.685516 263.216553,329.161743 
	C262.061554,329.489838 261.529968,329.742340 260.998352,329.994812 
	C260.998352,329.994812 261.000000,330.000000 260.698364,330.044983 
	C259.891296,330.407013 259.385864,330.724060 258.880432,331.041138 
z"/>
<path fill="#B5BD56" opacity="1.000000" stroke="none" 
	d="
M212.639374,153.052277 
	C215.766159,153.684982 219.234573,154.265198 222.486313,155.443420 
	C254.226486,166.944000 285.938477,178.522552 317.640259,190.128708 
	C328.379211,194.060272 339.066345,198.133438 349.909180,202.450607 
	C334.893890,197.345322 319.727509,191.983765 304.603638,186.504898 
	C282.134918,178.365234 259.701996,170.126724 237.241760,161.963547 
	C229.139267,159.018707 221.001892,156.169907 212.639374,153.052277 
z"/>
<path fill="#C2CE5A" opacity="1.000000" stroke="none" 
	d="
M132.120117,206.921295 
	C128.590973,207.149734 128.940277,204.388199 128.939987,201.869781 
	C128.937592,180.724121 128.937378,159.578461 128.938873,138.432800 
	C128.939117,134.936310 128.950790,131.439819 128.977158,127.475708 
	C129.125427,134.470779 129.340286,141.933197 129.364532,149.396210 
	C129.420151,166.514862 129.303406,183.634674 129.490143,200.751480 
	C129.511932,202.747421 131.002487,204.727325 132.120117,206.921295 
z"/>
<path fill="#C7E13E" opacity="1.000000" stroke="none" 
	d="
M377.352295,284.689209 
	C377.088379,284.196808 377.044434,283.353394 376.892151,282.100769 
	C376.752625,259.854736 376.721344,238.017883 376.868866,215.325073 
	C377.140137,213.911026 377.232605,213.352936 377.325073,212.794830 
	C377.550659,214.254227 377.969727,215.713242 377.972748,217.173096 
	C378.016327,238.418198 378.011017,259.663422 377.987000,280.908569 
	C377.985718,282.051941 377.716614,283.195007 377.352295,284.689209 
z"/>
<path fill="#B5BD56" opacity="1.000000" stroke="none" 
	d="
M377.249939,212.504730 
	C377.232605,213.352936 377.140137,213.911026 376.937012,214.878860 
	C375.344849,213.918716 374.091156,211.987183 372.341766,211.277481 
	C365.265808,208.406845 358.037170,205.912460 350.605713,203.070068 
	C357.811554,205.229218 365.276306,207.598236 372.741791,209.964981 
	C373.833252,210.311005 374.928101,210.646332 376.381653,211.043564 
	C376.886230,211.471893 377.030548,211.843262 377.249939,212.504730 
z"/>
<path fill="#C2CE5A" opacity="1.000000" stroke="none" 
	d="
M183.394592,222.508606 
	C178.285110,221.117676 172.908401,219.472641 167.356323,217.555756 
	C172.496414,218.940765 177.811890,220.597626 183.394592,222.508606 
z"/>
<path fill="#C2CE5A" opacity="1.000000" stroke="none" 
	d="
M152.267151,212.912964 
	C148.189758,211.978622 143.831314,210.888000 139.251602,209.524200 
	C143.348923,210.419586 147.667511,211.588120 152.267151,212.912964 
z"/>
<path fill="#C2CE5A" opacity="1.000000" stroke="none" 
	d="
M166.155197,216.921158 
	C162.123062,215.969482 157.808289,214.867371 153.300507,213.486862 
	C157.362518,214.395889 161.617523,215.583298 166.155197,216.921158 
z"/>
<path fill="#C2CE5A" opacity="1.000000" stroke="none" 
	d="
M138.270905,208.974152 
	C136.854416,208.704468 135.173401,208.268372 133.296722,207.574829 
	C134.736191,207.814163 136.371292,208.310944 138.270905,208.974152 
z"/>
<path fill="#C2CE5A" opacity="1.000000" stroke="none" 
	d="
M190.441711,224.489365 
	C189.618393,224.424408 188.568817,224.108521 187.333038,223.517853 
	C188.169724,223.574860 189.192596,223.906647 190.441711,224.489365 
z"/>
<path fill="#C2CE5A" opacity="1.000000" stroke="none" 
	d="
M186.336761,222.947937 
	C186.058838,223.042664 185.628998,223.009888 184.871231,222.928833 
	C185.090485,222.860519 185.637680,222.840485 186.336761,222.947937 
z"/>
<path fill="#C7E13E" opacity="1.000000" stroke="none" 
	d="
M314.318604,309.993134 
	C315.392090,309.345184 316.853333,308.706482 318.658752,308.018372 
	C317.570770,308.646790 316.138580,309.324585 314.318604,309.993134 
z"/>
<path fill="#C7E13E" opacity="1.000000" stroke="none" 
	d="
M259.094360,331.179749 
	C259.385864,330.724060 259.891296,330.407013 260.695618,330.042847 
	C260.432434,330.436615 259.870361,330.877472 259.094360,331.179749 
z"/>
<path fill="#C7E13E" opacity="1.000000" stroke="none" 
	d="
M367.232361,289.901428 
	C367.678772,289.564087 368.462738,289.239960 369.564819,288.867798 
	C369.111938,289.184723 368.340942,289.549652 367.232361,289.901428 
z"/>
<path fill="#C7E13E" opacity="1.000000" stroke="none" 
	d="
M261.292999,329.968262 
	C261.529968,329.742340 262.061554,329.489838 262.897583,329.235962 
	C262.663910,329.470245 262.125763,329.705994 261.292999,329.968262 
z"/>
<path fill="#C7E13E" opacity="1.000000" stroke="none" 
	d="
M224.133469,343.854370 
	C224.168320,343.726501 224.449265,343.544922 224.980835,343.318481 
	C224.947495,343.449280 224.663544,343.624969 224.133469,343.854370 
z"/>
<path fill="#C7E13E" opacity="1.000000" stroke="none" 
	d="
M362.125458,291.810974 
	C362.163147,291.686768 362.446991,291.513672 362.979706,291.294952 
	C362.942932,291.420258 362.657257,291.591187 362.125458,291.810974 
z"/>
<path fill="#C7E13E" opacity="1.000000" stroke="none" 
	d="
M219.072525,345.595581 
	C219.126099,345.467834 219.343201,345.417542 219.893997,345.337341 
	C219.897156,345.429291 219.566589,345.551178 219.072525,345.595581 
z"/>
<path fill="#C7E13E" opacity="1.000000" stroke="none" 
	d="
M214.146774,347.877777 
	C214.134659,347.678589 214.408890,347.507843 214.974091,347.376465 
	C214.976501,347.564575 214.699188,347.728058 214.146774,347.877777 
z"/>
<path fill="#C7E13E" opacity="1.000000" stroke="none" 
	d="
M371.218262,287.981506 
	C371.187439,287.788788 371.437653,287.594482 371.980835,287.423645 
	C371.992950,287.601257 371.734772,287.778870 371.218262,287.981506 
z"/>
<path fill="#C7E13E" opacity="1.000000" stroke="none" 
	d="
M206.154205,350.880920 
	C206.174072,350.739868 206.442078,350.530029 206.959381,350.250366 
	C206.939911,350.391052 206.671143,350.601624 206.154205,350.880920 
z"/>
<path fill="#C7E13E" opacity="1.000000" stroke="none" 
	d="
M375.112030,286.816101 
	C375.069214,286.620209 375.312012,286.409576 375.829529,286.165100 
	C375.880402,286.361908 375.644836,286.585297 375.112030,286.816101 
z"/>
<path fill="#C7E13E" opacity="1.000000" stroke="none" 
	d="
M199.113235,353.763824 
	C199.148987,353.635376 199.432022,353.457764 199.965530,353.233521 
	C199.930847,353.362793 199.645676,353.538727 199.113235,353.763824 
z"/>
<path fill="#C7E13E" opacity="1.000000" stroke="none" 
	d="
M351.135559,295.856445 
	C351.124054,295.651459 351.404938,295.479340 351.981171,295.345917 
	C351.985138,295.540894 351.702271,295.709106 351.135559,295.856445 
z"/>
<path fill="#C7E13E" opacity="1.000000" stroke="none" 
	d="
M321.112762,307.630066 
	C321.098145,307.439301 321.353333,307.269409 321.874542,307.105103 
	C321.898834,307.302368 321.646179,307.482452 321.112762,307.630066 
z"/>
<path fill="#C7E13E" opacity="1.000000" stroke="none" 
	d="
M330.179779,303.933411 
	C330.157227,303.734436 330.425354,303.543396 330.988953,303.369873 
	C331.002350,303.559662 330.731018,303.744324 330.179779,303.933411 
z"/>
<path fill="#C7E13E" opacity="1.000000" stroke="none" 
	d="
M312.156555,310.885620 
	C312.173340,310.747162 312.433350,310.531891 312.938049,310.239502 
	C312.921783,310.377930 312.660797,310.593384 312.156555,310.885620 
z"/>
<path fill="#C7E13E" opacity="1.000000" stroke="none" 
	d="
M309.119354,311.785095 
	C309.112610,311.584442 309.396851,311.417267 309.975342,311.287537 
	C309.970306,311.469116 309.683899,311.633636 309.119354,311.785095 
z"/>
<path fill="#C7E13E" opacity="1.000000" stroke="none" 
	d="
M340.153229,299.905182 
	C340.185150,299.776428 340.460968,299.591156 340.984314,299.356934 
	C340.953583,299.488251 340.675354,299.668457 340.153229,299.905182 
z"/>
<path fill="#C7E13E" opacity="1.000000" stroke="none" 
	d="
M303.189575,313.928192 
	C303.163361,313.731140 303.424683,313.540222 303.983612,313.376099 
	C303.992035,313.556152 303.724030,313.733307 303.189575,313.928192 
z"/>
<path fill="#C7E13E" opacity="1.000000" stroke="none" 
	d="
M299.120514,315.806885 
	C299.154724,315.676147 299.438416,315.493805 299.973938,315.262146 
	C299.940552,315.393646 299.655273,315.574463 299.120514,315.806885 
z"/>
<path fill="#C7E13E" opacity="1.000000" stroke="none" 
	d="
M346.137756,297.851471 
	C346.129883,297.653442 346.410431,297.484222 346.981934,297.348206 
	C346.983337,297.537170 346.701080,297.703461 346.137756,297.851471 
z"/>
<path fill="#C7E13E" opacity="1.000000" stroke="none" 
	d="
M293.121979,317.814087 
	C293.113220,317.607788 293.397278,317.441132 293.977051,317.318909 
	C293.975586,317.509338 293.689606,317.672821 293.121979,317.814087 
z"/>
<path fill="#C7E13E" opacity="1.000000" stroke="none" 
	d="
M283.129700,321.844238 
	C283.163025,321.712402 283.445984,321.527496 283.981262,321.292603 
	C283.948792,321.425446 283.664062,321.608307 283.129700,321.844238 
z"/>
<path fill="#C7E13E" opacity="1.000000" stroke="none" 
	d="
M230.143921,341.878204 
	C230.177811,341.751129 230.455719,341.570435 230.981262,341.343689 
	C230.989563,341.538666 230.709244,341.714325 230.143921,341.878204 
z"/>
<path fill="#C7E13E" opacity="1.000000" stroke="none" 
	d="
M277.122833,323.837341 
	C277.161407,323.712891 277.444885,323.543701 277.976379,323.335754 
	C277.975891,323.526215 277.690338,323.691376 277.122833,323.837341 
z"/>
<path fill="#C7E13E" opacity="1.000000" stroke="none" 
	d="
M267.127045,327.831451 
	C267.161652,327.701538 267.444885,327.518860 267.980408,327.288757 
	C267.947052,327.420471 267.661377,327.599609 267.127045,327.831451 
z"/>
<path fill="#C7E13E" opacity="1.000000" stroke="none" 
	d="
M256.121979,331.820038 
	C256.160767,331.695862 256.445831,331.525055 256.980225,331.312744 
	C256.942474,331.438629 256.655365,331.606018 256.121979,331.820038 
z"/>
<path fill="#C7E13E" opacity="1.000000" stroke="none" 
	d="
M356.128510,293.847595 
	C356.164398,293.722412 356.446564,293.539886 356.979614,293.308533 
	C356.945282,293.436584 356.660065,293.613403 356.128510,293.847595 
z"/>
<path fill="#C7E13E" opacity="1.000000" stroke="none" 
	d="
M249.119324,334.811920 
	C249.136322,334.670654 249.399796,334.457825 249.909378,334.168549 
	C249.892258,334.308197 249.629028,334.524292 249.119324,334.811920 
z"/>
<path fill="#C7E13E" opacity="1.000000" stroke="none" 
	d="
M246.123871,335.797760 
	C246.114929,335.596161 246.397324,335.426880 246.974503,335.294678 
	C246.972610,335.479553 246.687927,335.645660 246.123871,335.797760 
z"/>
<path fill="#C7E13E" opacity="1.000000" stroke="none" 
	d="
M243.146255,336.879761 
	C243.169952,336.741516 243.440598,336.539246 243.960846,336.275604 
	C243.938034,336.414734 243.665619,336.615204 243.146255,336.879761 
z"/>
<path fill="#C7E13E" opacity="1.000000" stroke="none" 
	d="
M240.143768,337.872864 
	C240.177872,337.746307 240.456635,337.565155 240.983536,337.335815 
	C240.950592,337.464478 240.669510,337.641327 240.143768,337.872864 
z"/>
<path fill="#C7E13E" opacity="1.000000" stroke="none" 
	d="
M359.150757,292.869446 
	C359.171906,292.727722 359.438904,292.528870 359.951447,292.268555 
	C359.930206,292.408813 359.663391,292.610565 359.150757,292.869446 
z"/>
<path fill="#B9D631" opacity="1.000000" stroke="none" 
	d="
M146.689026,290.319397 
	C146.696899,290.463593 146.517303,290.568604 146.148621,290.629242 
	C146.150116,290.498718 146.330795,290.397186 146.689026,290.319397 
z"/>
<path fill="#B9D631" opacity="1.000000" stroke="none" 
	d="
M134.706818,294.260742 
	C134.722717,294.398010 134.553314,294.514923 134.197464,294.601532 
	C134.189743,294.470978 134.359909,294.360657 134.706818,294.260742 
z"/>
<path fill="#C8F805" opacity="1.000000" stroke="none" 
	d="
M127.415581,126.099731 
	C127.773788,126.158676 127.853439,126.571747 127.926064,126.768707 
	C127.998688,153.399460 127.998688,179.833267 127.998688,207.152969 
	C121.931885,205.335999 116.569107,203.858673 111.331383,202.024323 
	C110.533035,201.744736 109.891479,199.812988 109.888626,198.643661 
	C109.827202,173.498154 109.864380,148.352386 109.909546,123.206711 
	C109.910370,122.749107 110.240997,122.292091 110.559639,121.467659 
	C113.411858,121.976700 116.285873,122.489632 119.568863,123.028366 
	C122.337677,124.049698 124.697525,125.045242 127.415581,126.099731 
z"/>
</svg>