<?xml version="1.0" encoding="UTF-8"?>
<!DOCTYPE svg PUBLIC "-//W3C//DTD SVG 1.1//EN" "http://www.w3.org/Graphics/SVG/1.1/DTD/svg11.dtd">
<!-- Creator: CorelDRAW 2021 (64-Bit) -->
<svg xmlns="http://www.w3.org/2000/svg" xml:space="preserve" width="11in" height="8.5in" version="1.1" style="shape-rendering:geometricPrecision; text-rendering:geometricPrecision; image-rendering:optimizeQuality; fill-rule:evenodd; clip-rule:evenodd"
viewBox="0 0 11000 8500"
 xmlns:xlink="http://www.w3.org/1999/xlink"
 xmlns:xodm="http://www.corel.com/coreldraw/odm/2003">
 <defs>
  <style type="text/css">
   <![CDATA[
    .fil1 {fill:#FEFEFE;fill-rule:nonzero}
    .fil2 {fill:#7C2FEB;fill-rule:nonzero}
    .fil0 {fill:#CCFF00;fill-rule:nonzero}
   ]]>
  </style>
 </defs>
 <g id="Layer_x0020_1">
  <metadata id="CorelCorpID_0Corel-Layer"/>
  <g id="_2181550465360">
   <g>
    <path class="fil0" d="M6688.86 5424.03l-286.4 -293.69c-77.8,73.91 -165.81,133.23 -264.03,177.48 -98.7,44.25 -208.59,66.13 -330.15,66.13 -96.76,0 -187.2,-17.02 -271.81,-51.54 -84.61,-34.04 -158.03,-80.72 -220.75,-141.01 -62.72,-59.81 -112.32,-130.31 -148.3,-212 -35.98,-81.69 -53.97,-169.7 -53.97,-263.54 0,-120.59 27.72,-227.56 84.12,-320.43 55.92,-93.36 133.72,-175.05 233.4,-245.06 0.97,0 2.43,-0.97 4.38,-2.92l-27.23 -28.69c-58.83,-62.24 -104.06,-130.31 -136.15,-203.73 -31.61,-72.94 -47.65,-155.11 -47.65,-246.04 0,-78.28 15.56,-152.19 47.17,-222.21 31.12,-70.5 74.88,-132.26 130.31,-186.23 55.43,-53.49 120.58,-95.79 194.98,-127.39 74.88,-31.12 155.6,-47.17 243.12,-47.17 91.9,0 175.54,16.53 250.42,48.62 75.37,32.09 139.55,75.37 192.55,128.85 53,53.48 94.33,115.24 123.02,185.26 29.17,70.02 43.76,141.98 43.76,217.35 0,53 -6.81,104.54 -20.91,153.65 -13.61,49.59 -32.57,95.3 -56.89,138.09 -24.31,42.79 -52.51,82.18 -84.61,117.67 -32.58,35.49 -66.61,66.13 -102.59,91.9 -16.05,11.19 -32.09,22.37 -47.17,33.55 -15.07,10.7 -30.63,21.39 -47.17,32.09l233.88 230.48c13.13,-42.3 24.31,-83.63 33.55,-123.02 8.75,-39.39 16.04,-76.83 21.88,-111.83l425.95 0c-6.32,91.9 -22.37,185.74 -47.65,281.53 -25.28,95.3 -59.81,188.18 -103.08,278.13l363.22 356.41 -329.19 289.31z"/>
    <path class="fil0" d="M8945.39 4963.56l150.74 0c48.62,-111.83 98.71,-226.1 149.76,-341.83 51.54,-115.72 102.6,-230.48 153.17,-343.28 50.57,-112.81 100.65,-223.19 149.76,-331.13 48.63,-107.94 95.3,-210.54 140.04,-308.28l-602.45 0 0 245.07 -408.93 0 0 -689.49 1578.34 0 0 321.89c-111.83,229.51 -226.11,466.79 -342.31,711.37 -116.7,244.58 -229.51,489.65 -338.42,735.69l141.01 0 0 390.45 -770.69 0 0 -390.45z"/>
    <path class="fil0" d="M8067.29 3802.9c-4.86,-33.55 -16.53,-64.67 -35.01,-94.33 -18.47,-29.18 -42.3,-54.95 -70.99,-76.34 -29.17,-21.39 -61.75,-37.93 -98.7,-50.57 -36.47,-12.16 -74.4,-18.48 -114.27,-18.48 -36.46,0 -70.02,3.89 -101.13,11.67 -31.61,7.29 -58.84,18.96 -82.17,35.01 -23.34,15.56 -41.82,35.5 -55.43,60.3 -13.61,24.8 -20.91,53.97 -20.91,88.5 0,42.79 9.24,76.34 27.72,101.62 18.96,25.29 42.3,45.71 71.48,62.24 29.17,16.05 60.78,28.69 96.28,38.41 35.01,9.24 69.05,19.94 102.6,31.12l391.42 131.28c54.46,18.96 105.03,45.22 152.68,78.29 47.17,33.06 88.5,73.42 123.02,121.07 35.01,47.65 62.24,102.11 82.18,163.86 19.94,61.75 29.66,130.8 29.66,208.11 0,104.06 -18.96,199.85 -57.38,285.91 -38.9,86.55 -92.39,160.46 -161.92,222.21 -69.53,61.75 -152.19,109.89 -249.44,143.93 -96.76,34.52 -204.22,51.54 -321.89,51.54 -82.66,0 -160.46,-9.24 -234.37,-27.71 -73.42,-18.48 -140.52,-45.71 -201.3,-80.72 -60.78,-35.01 -114.26,-77.31 -159.49,-125.94 -45.7,-49.11 -81.2,-104.06 -106.97,-165.81l-146.85 0 0 -428.87 515.91 0 0 88.01c0,42.79 6.81,82.17 20.42,118.65 13.61,35.98 34.52,67.1 62.24,93.84 27.23,26.74 62.24,47.17 104.06,61.75 41.33,15.07 90.44,22.37 146.35,22.37 85.58,0 150.74,-19.94 195.47,-59.32 44.25,-39.39 66.61,-94.33 66.61,-164.35 0,-35.98 -7.78,-66.13 -23.34,-90.44 -15.56,-24.31 -35.98,-44.74 -60.78,-61.27 -24.31,-16.53 -52.03,-30.63 -82.18,-42.3 -30.63,-11.19 -60.78,-21.88 -89.95,-31.12l-326.27 -105.52c-61.75,-18.96 -121.07,-45.7 -178.94,-79.74 -57.37,-34.04 -107.95,-76.83 -152.19,-128.37 -44.25,-51.05 -79.26,-111.35 -105.52,-179.91 -26.26,-69.04 -38.9,-147.33 -38.9,-235.82 0,-102.6 18.96,-194.01 56.89,-274.24 37.93,-80.22 90.93,-147.81 159.49,-203.24 68.56,-54.95 149.28,-96.76 243.61,-124.96 93.84,-28.69 196.93,-42.79 309.24,-42.79 88.01,0 169.7,10.21 244.58,30.63 75.37,20.42 142.47,47.65 201.79,81.69 59.32,34.04 109.89,73.42 151.22,117.67 41.33,44.25 72.45,89.96 94.33,137.61l142.47 0 0 429.84 -515.42 0 0 -124.96z"/>
    <path class="fil1" d="M5945.39 3839.85c30.15,-21.88 52.03,-47.65 64.67,-77.8 12.64,-29.66 18.96,-65.15 18.96,-106 0,-25.77 -4.87,-50.09 -14.59,-72.94 -10.21,-22.85 -23.83,-42.79 -41.33,-60.3 -17.5,-17.5 -37.93,-31.6 -60.78,-41.33 -22.85,-10.21 -46.68,-15.07 -72.45,-15.07 -30.63,0 -57.86,4.86 -82.66,14.1 -24.8,9.72 -46.19,22.85 -64.19,40.36 -17.99,17.02 -32.09,36.95 -41.81,60.3 -10.21,23.33 -15.07,48.14 -15.07,74.88 0,37.92 6.81,74.88 20.42,110.37 14.1,35.5 33.07,64.67 57.86,87.52l79.75 78.29c29.66,-16.05 56.89,-31.61 82.66,-47.17 25.77,-15.07 48.63,-30.15 68.56,-45.22z"/>
    <path class="fil1" d="M5563.69 4697.1c0,31.61 5.84,61.75 18.48,90.44 12.16,29.18 29.66,54.95 51.54,77.8 22.37,22.85 49.6,40.84 80.72,53.97 31.12,13.61 66.62,19.94 105.52,19.94 59.81,0 113.3,-10.21 159.97,-30.63 47.17,-20.43 89.47,-47.65 127.88,-81.69l-373.43 -381.7c-25.77,16.05 -49.11,32.58 -70.5,49.6 -21.39,17.5 -39.39,35.98 -53.97,55.92 -15.07,19.93 -26.26,41.81 -34.52,66.13 -7.78,24.31 -11.67,51.05 -11.67,80.23z"/>
   </g>
   <polygon class="fil2" points="3267.72,4399.52 4035.5,3194.61 4511.53,3194.61 3754.94,4402.44 4211.03,4402.44 4211.03,3985.24 4656.91,3979.41 4656.91,4402.44 4957.41,4402.44 4957.41,4764.2 4656.91,4764.2 4656.91,4963.56 4931.64,4963.56 4931.64,5354.01 4005.84,5354.01 4005.84,4963.56 4211.03,4963.56 4211.03,4764.2 3267.72,4764.2 "/>
   <polygon class="fil2" points="2190.27,3194.61 3116.07,3194.61 3116.07,3586.04 2888.02,3586.04 2888.02,4963.56 3116.07,4963.56 3116.07,5354.01 2190.27,5354.01 2190.27,4963.56 2415.4,4963.56 2415.4,4410.7 1440.97,4410.7 1440.97,4963.56 1668.54,4963.56 1668.54,5354.01 744.19,5354.01 744.19,4963.56 967.86,4963.56 967.86,3586.04 744.19,3586.04 744.19,3194.61 1668.54,3194.61 1668.54,3586.04 1440.97,3586.04 1440.97,4034.83 2415.4,4034.83 2415.4,3586.04 2190.27,3586.04 "/>
  </g>
 </g>
</svg>
